<svg version="1.1" id="Layer_1" xmlns="http://www.w3.org/2000/svg" xmlns:xlink="http://www.w3.org/1999/xlink" x="0px" y="0px"
	 width="100%" viewBox="0 0 1024 672" enable-background="new 0 0 1024 672" xml:space="preserve">
<path fill="#000000" opacity="1.000000" stroke="none" 
	d="
M688.791016,548.821167 
	C662.807922,570.497864 634.391846,587.180786 602.605896,597.971252 
	C589.054810,602.571350 580.664001,596.660034 580.680603,582.336365 
	C580.707947,558.672485 580.751038,535.008545 580.825073,511.344727 
	C580.862488,499.379883 578.922546,487.842957 573.999023,476.846283 
	C571.466125,471.189026 567.247131,466.705322 563.163635,461.371368 
	C568.136658,459.346588 572.857666,459.659241 577.341553,458.913666 
	C603.159424,454.620514 627.627991,447.078308 647.978210,429.680084 
	C667.043091,413.380615 677.600098,392.075317 682.197632,367.931824 
	C686.515381,345.257935 688.005371,322.354309 682.282715,299.538208 
	C678.605408,284.876740 671.711060,271.872528 662.007874,260.409912 
	C659.219849,257.116364 658.532043,254.404633 659.861023,250.173187 
	C666.341431,229.540146 664.235901,209.138031 657.371399,188.969406 
	C656.184204,185.481171 654.083801,183.997086 650.317444,184.106216 
	C633.484924,184.594009 618.591125,191.068802 604.120300,198.839447 
	C597.519470,202.384033 590.967468,206.045273 584.907043,210.490616 
	C582.864746,211.988632 580.827759,212.232269 578.345154,211.535233 
	C553.441406,204.543091 527.998413,202.302139 502.241302,203.451889 
	C485.931000,204.179977 469.727142,206.071686 454.006226,210.669464 
	C448.967102,212.143219 445.176666,211.602310 440.610748,208.656540 
	C423.908691,197.880981 406.539246,188.379410 386.555756,184.897049 
	C373.746124,182.664825 372.863892,182.989014 369.269714,195.161423 
	C363.673523,214.114090 362.779999,233.138168 369.240417,252.097916 
	C370.179352,254.853485 369.572113,256.699799 367.751221,258.834412 
	C348.344452,281.584717 341.108124,308.142365 342.847168,337.671204 
	C343.672607,351.686768 345.177429,365.564636 349.047638,379.050323 
	C358.754639,412.874176 380.100830,436.221222 412.951630,448.942719 
	C428.106964,454.811554 443.822449,458.370209 459.976105,460.044617 
	C461.446198,460.196991 463.004761,460.115753 464.113525,461.401428 
	C464.376251,463.206970 462.933197,464.089905 461.990204,465.157562 
	C455.059540,473.004578 451.056976,482.239960 449.325836,492.441956 
	C448.640015,496.483673 446.907806,498.883575 442.908661,500.259033 
	C420.943146,507.813690 400.068329,508.006104 381.483459,491.725006 
	C376.307007,487.190277 372.356110,481.618805 368.633881,475.854065 
	C361.352631,464.577209 352.391724,455.129395 339.439392,450.336639 
	C333.205078,448.029755 326.768341,447.461639 320.298828,449.149475 
	C315.183807,450.483978 314.460632,452.909027 317.923615,456.955170 
	C319.423065,458.707092 321.140411,460.456848 323.113464,461.589996 
	C339.671295,471.099609 348.876648,486.662537 355.809082,503.346161 
	C364.320435,523.829651 379.817993,533.517273 400.689728,536.713867 
	C414.513184,538.830872 428.242035,537.788330 441.876373,535.350403 
	C446.155426,534.585144 447.203522,536.019470 447.187744,539.894226 
	C447.128784,554.392029 447.245850,568.890564 447.256226,583.388794 
	C447.265076,595.776794 438.346130,602.222168 426.478088,598.376709 
	C409.935486,593.016663 394.165314,585.865356 379.133514,577.173340 
	C327.260315,547.178284 289.086761,504.746216 264.996582,449.904938 
	C252.369171,421.158630 245.339249,391.039551 243.428207,359.540741 
	C240.538284,311.907257 248.833969,266.552338 270.014343,223.902969 
	C303.561066,156.352371 356.291382,110.272919 427.681732,85.666168 
	C449.696564,78.078125 472.346680,74.118729 495.568848,72.564438 
	C554.696594,68.606941 609.462769,82.300087 659.160645,114.210144 
	C720.516418,153.605530 759.778259,209.307709 777.220764,280.189331 
	C784.123657,308.241028 785.687073,336.717010 783.297729,365.466187 
	C778.552979,422.557281 757.141052,472.768036 720.766785,516.746704 
	C711.197327,528.316711 700.518494,538.859375 688.791016,548.821167 
z"/>
</svg>