<svg version="1.1" id="Layer_1" xmlns="http://www.w3.org/2000/svg" xmlns:xlink="http://www.w3.org/1999/xlink" x="0px" y="0px"
	 width="100%" viewBox="0 0 512 512" enable-background="new 0 0 512 512" xml:space="preserve">
<path fill="#000000" opacity="1.000000" stroke="none" 
	d="
M286.000000,1.000003 
	C361.632202,1.000000 437.264404,1.000000 512.948303,1.000000 
	C512.948303,171.554443 512.948303,342.108917 512.948303,513.000000 
	C440.645569,513.000000 368.290649,513.000000 295.372803,512.589172 
	C299.420837,511.351562 304.051453,510.620667 308.639343,509.681122 
	C327.165771,505.887177 345.272064,500.861206 362.702454,493.268250 
	C387.423859,482.499207 410.149597,468.847961 429.768127,449.759033 
	C434.581604,444.926117 439.471558,440.547028 443.701294,435.603119 
	C450.380798,427.795837 456.996277,419.880493 462.967010,411.530457 
	C478.055511,390.429291 488.488983,367.055573 496.052460,342.283203 
	C503.463684,318.009491 507.046539,293.125122 507.781342,267.890656 
	C508.144745,255.410278 506.972595,242.843323 505.819519,230.378021 
	C505.228180,223.985443 503.151276,217.730301 501.795837,210.940521 
	C499.879089,210.313080 497.912323,210.023285 495.945465,210.022690 
	C421.316345,210.000046 346.687225,210.002045 272.058105,210.011475 
	C269.064240,210.011856 266.070374,210.116364 262.639587,210.260895 
	C262.137024,242.941422 262.065887,275.533417 262.050476,308.125427 
	C262.050201,308.701904 262.719849,309.278748 263.536682,309.920776 
	C309.341156,310.029999 354.685822,310.073822 399.884827,310.471252 
	C397.482452,317.743103 395.503082,324.767151 392.912262,331.557892 
	C387.248474,346.403259 378.242737,359.185669 366.972260,370.218689 
	C361.164978,375.903625 354.355408,380.564697 347.649963,385.800598 
	C335.202942,393.756683 322.077332,399.390503 308.037140,402.344482 
	C296.157654,404.843842 284.047974,406.300415 272.001099,407.929260 
	C266.786133,408.634338 261.396484,409.319458 256.221375,408.761047 
	C247.630295,407.834076 239.010849,406.424347 230.654892,404.250885 
	C219.941803,401.464355 209.066681,398.649475 198.993683,394.191986 
	C179.323318,385.487518 162.561981,372.614777 148.560913,356.048096 
	C139.292114,345.080780 131.436905,333.382874 125.725182,320.234680 
	C123.397476,314.876373 121.125656,309.493744 118.888077,303.721130 
	C116.888023,293.151794 114.828293,282.983582 112.593369,272.451538 
	C112.536057,261.793518 112.653946,251.499283 112.865837,240.762085 
	C113.605186,236.004456 114.085510,231.656998 114.935188,227.382980 
	C116.158737,221.228226 117.650787,215.126846 119.343506,208.829102 
	C123.630699,200.059204 127.214439,191.256729 131.649277,182.906235 
	C143.688034,160.238068 161.149231,142.329803 182.920975,129.140350 
	C213.889526,110.379395 247.362335,102.278427 283.769775,107.820992 
	C299.482361,110.213043 314.497528,114.312119 328.410187,121.867752 
	C338.379822,127.281998 347.924164,133.479431 357.168274,139.033112 
	C381.673737,114.571823 406.490234,89.800041 431.689056,64.646622 
	C426.596405,60.720089 421.540253,56.292561 415.976135,52.638615 
	C403.245026,44.278114 390.699707,35.476208 377.277710,28.366064 
	C360.311218,19.378235 342.180420,12.707702 323.443024,8.381395 
	C311.823425,5.698522 299.802368,4.764096 287.979889,2.926605 
	C287.238037,2.811306 286.656250,1.666075 286.000000,1.000003 
z"/>
<path fill="#E94336" opacity="1.000000" stroke="none" 
	d="
M285.531342,1.000003 
	C286.656250,1.666075 287.238037,2.811306 287.979889,2.926605 
	C299.802368,4.764096 311.823425,5.698522 323.443024,8.381395 
	C342.180420,12.707702 360.311218,19.378235 377.277710,28.366064 
	C390.699707,35.476208 403.245026,44.278114 415.976135,52.638615 
	C421.540253,56.292561 426.596405,60.720089 431.689056,64.646622 
	C406.490234,89.800041 381.673737,114.571823 357.168274,139.033112 
	C347.924164,133.479431 338.379822,127.281998 328.410187,121.867752 
	C314.497528,114.312119 299.482361,110.213043 283.769775,107.820992 
	C247.362335,102.278427 213.889526,110.379395 182.920975,129.140350 
	C161.149231,142.329803 143.688034,160.238068 131.649277,182.906235 
	C127.214439,191.256729 123.630699,200.059204 119.027100,208.705643 
	C98.390594,193.533661 78.425751,178.258560 58.362164,163.114273 
	C49.748596,156.612610 40.929924,150.382660 32.253464,143.679428 
	C35.179073,138.024216 38.059311,132.720825 40.931526,127.413094 
	C49.670467,111.263916 60.886894,96.882652 73.235725,83.433708 
	C80.163277,75.889008 87.566551,68.630188 95.561203,62.252575 
	C106.786194,53.297997 118.302971,44.529659 130.549683,37.088383 
	C141.685699,30.321964 153.689362,24.746973 165.815369,19.913111 
	C177.857117,15.112831 190.416199,11.471935 202.961441,8.119815 
	C211.901459,5.731017 221.200729,4.696060 230.315750,2.933243 
	C230.977051,2.805347 231.443146,1.668012 232.000000,1.000001 
	C249.687561,1.000000 267.375122,1.000000 285.531342,1.000003 
z"/>
<path fill="#35A854" opacity="1.000000" stroke="none" 
	d="
M118.828407,304.122192 
	C121.125656,309.493744 123.397476,314.876373 125.725182,320.234680 
	C131.436905,333.382874 139.292114,345.080780 148.560913,356.048096 
	C162.561981,372.614777 179.323318,385.487518 198.993683,394.191986 
	C209.066681,398.649475 219.941803,401.464355 230.654892,404.250885 
	C239.010849,406.424347 247.630295,407.834076 256.221375,408.761047 
	C261.396484,409.319458 266.786133,408.634338 272.001099,407.929260 
	C284.047974,406.300415 296.157654,404.843842 308.037140,402.344482 
	C322.077332,399.390503 335.202942,393.756683 347.824554,386.103516 
	C363.177399,397.810974 378.044617,409.279541 392.824677,420.859314 
	C405.119049,430.491577 417.311096,440.254486 429.548492,449.959534 
	C410.149597,468.847961 387.423859,482.499207 362.702454,493.268250 
	C345.272064,500.861206 327.165771,505.887177 308.639343,509.681122 
	C304.051453,510.620667 299.420837,511.351562 294.904938,512.589172 
	C273.979095,513.000000 252.958206,513.000000 231.592712,512.615356 
	C230.580658,511.844208 229.956985,511.257568 229.239288,511.100525 
	C213.918381,507.748047 198.383469,505.170013 183.308884,500.946747 
	C164.334183,495.630920 146.293488,487.511810 129.767395,476.779755 
	C116.234795,467.991669 102.814987,458.685425 90.837234,447.944977 
	C78.992241,437.323547 68.476929,425.058838 58.369823,412.703857 
	C47.731342,399.699402 38.838650,385.387085 32.435051,369.740387 
	C34.311291,368.701691 35.988533,367.933136 37.420387,366.842468 
	C53.836334,354.338104 70.242111,341.820007 86.593948,329.231995 
	C97.386292,320.923798 108.086792,312.496277 118.828407,304.122192 
z"/>
<path fill="#000000" opacity="1.000000" stroke="none" 
	d="
M32.122063,369.860901 
	C38.838650,385.387085 47.731342,399.699402 58.369823,412.703857 
	C68.476929,425.058838 78.992241,437.323547 90.837234,447.944977 
	C102.814987,458.685425 116.234795,467.991669 129.767395,476.779755 
	C146.293488,487.511810 164.334183,495.630920 183.308884,500.946747 
	C198.383469,505.170013 213.918381,507.748047 229.239288,511.100525 
	C229.956985,511.257568 230.580658,511.844208 231.124054,512.615356 
	C154.367813,513.000000 77.735626,513.000000 1.051718,513.000000 
	C1.051718,342.444580 1.051718,171.889130 1.051718,1.000000 
	C77.687241,1.000000 154.374954,1.000000 231.531342,1.000001 
	C231.443146,1.668012 230.977051,2.805347 230.315750,2.933243 
	C221.200729,4.696060 211.901459,5.731017 202.961441,8.119815 
	C190.416199,11.471935 177.857117,15.112831 165.815369,19.913111 
	C153.689362,24.746973 141.685699,30.321964 130.549683,37.088383 
	C118.302971,44.529659 106.786194,53.297997 95.561203,62.252575 
	C87.566551,68.630188 80.163277,75.889008 73.235725,83.433708 
	C60.886894,96.882652 49.670467,111.263916 40.931526,127.413094 
	C38.059311,132.720825 35.179073,138.024216 32.089222,144.003723 
	C26.431849,158.782333 20.192007,172.641571 15.749982,187.054855 
	C10.485902,204.135529 7.037488,221.736465 6.656023,240.006363 
	C6.163840,251.056229 6.061312,261.895630 6.031531,272.735229 
	C6.030208,273.216888 6.691346,273.700378 7.027735,274.633728 
	C8.568546,308.481720 17.334526,339.968994 32.122063,369.860901 
z"/>
<path fill="#4386F4" opacity="1.000000" stroke="none" 
	d="
M429.768127,449.759033 
	C417.311096,440.254486 405.119049,430.491577 392.824677,420.859314 
	C378.044617,409.279541 363.177399,397.810974 348.173340,385.991333 
	C354.355408,380.564697 361.164978,375.903625 366.972260,370.218689 
	C378.242737,359.185669 387.248474,346.403259 392.912262,331.557892 
	C395.503082,324.767151 397.482452,317.743103 399.629730,310.122467 
	C397.542297,309.270874 395.564423,308.993774 393.586182,308.991272 
	C350.116486,308.936310 306.646790,308.911835 263.117523,308.421326 
	C263.091797,275.704865 263.125641,243.448517 263.616150,211.148483 
	C342.142426,211.087204 420.211975,211.068085 498.281525,211.067108 
	C499.436249,211.067093 500.591003,211.292725 501.745728,211.413040 
	C503.151276,217.730301 505.228180,223.985443 505.819519,230.378021 
	C506.972595,242.843323 508.144745,255.410278 507.781342,267.890656 
	C507.046539,293.125122 503.463684,318.009491 496.052460,342.283203 
	C488.488983,367.055573 478.055511,390.429291 462.967010,411.530457 
	C456.996277,419.880493 450.380798,427.795837 443.701294,435.603119 
	C439.471558,440.547028 434.581604,444.926117 429.768127,449.759033 
z"/>
<path fill="#F9BC08" opacity="1.000000" stroke="none" 
	d="
M32.435051,369.740387 
	C17.334526,339.968994 8.568546,308.481720 7.089107,274.155090 
	C7.130902,262.082458 7.095146,250.939209 7.059390,239.795944 
	C7.037488,221.736465 10.485902,204.135529 15.749982,187.054855 
	C20.192007,172.641571 26.431849,158.782333 32.040192,144.353577 
	C40.929924,150.382660 49.748596,156.612610 58.362164,163.114273 
	C78.425751,178.258560 98.390594,193.533661 118.711845,208.879227 
	C117.650787,215.126846 116.158737,221.228226 114.935188,227.382980 
	C114.085510,231.656998 113.605186,236.004456 112.558029,240.941010 
	C111.984573,251.665939 111.802757,261.768829 111.689293,271.872498 
	C111.685814,272.182709 112.392799,272.500885 112.768570,272.815338 
	C114.828293,282.983582 116.888023,293.151794 118.888077,303.721130 
	C108.086792,312.496277 97.386292,320.923798 86.593948,329.231995 
	C70.242111,341.820007 53.836334,354.338104 37.420387,366.842468 
	C35.988533,367.933136 34.311291,368.701691 32.435051,369.740387 
z"/>
<path fill="#9BBAEF" opacity="1.000000" stroke="none" 
	d="
M501.795837,210.940521 
	C500.591003,211.292725 499.436249,211.067093 498.281525,211.067108 
	C420.211975,211.068085 342.142426,211.087204 263.580200,210.894501 
	C263.083862,210.513611 263.080200,210.342987 263.076508,210.172348 
	C266.070374,210.116364 269.064240,210.011856 272.058105,210.011475 
	C346.687225,210.002045 421.316345,210.000046 495.945465,210.022690 
	C497.912323,210.023285 499.879089,210.313080 501.795837,210.940521 
z"/>
<path fill="#B9D1FE" opacity="1.000000" stroke="none" 
	d="
M263.177063,308.881500 
	C306.646790,308.911835 350.116486,308.936310 393.586182,308.991272 
	C395.564423,308.993774 397.542297,309.270874 399.775452,309.768860 
	C354.685822,310.073822 309.341156,310.029999 263.553619,309.676575 
	C263.110779,309.366943 263.177063,308.881500 263.177063,308.881500 
z"/>
<path fill="#D4E8FF" opacity="1.000000" stroke="none" 
	d="
M263.117523,308.421326 
	C263.177063,308.881500 263.110779,309.366943 263.093872,309.611176 
	C262.719849,309.278748 262.050201,308.701904 262.050476,308.125427 
	C262.065887,275.533417 262.137024,242.941422 262.639587,210.260895 
	C263.080200,210.342987 263.083862,210.513611 263.123505,210.938202 
	C263.125641,243.448517 263.091797,275.704865 263.117523,308.421326 
z"/>
<path fill="#F8DB8C" opacity="1.000000" stroke="none" 
	d="
M112.593369,272.451538 
	C112.392799,272.500885 111.685814,272.182709 111.689293,271.872498 
	C111.802757,261.768829 111.984573,251.665939 112.464020,241.384003 
	C112.653946,251.499283 112.536057,261.793518 112.593369,272.451538 
z"/>
<path fill="#FAE79D" opacity="1.000000" stroke="none" 
	d="
M6.656023,240.006363 
	C7.095146,250.939209 7.130902,262.082458 7.105286,273.704376 
	C6.691346,273.700378 6.030208,273.216888 6.031531,272.735229 
	C6.061312,261.895630 6.163840,251.056229 6.656023,240.006363 
z"/>
</svg>